<svg width="20" height="21" viewBox="0 0 20 21" fill="none" xmlns="http://www.w3.org/2000/svg">
<g clip-path="url(#clip0_122_411)">
<circle cx="10" cy="10.9021" r="10" fill="#FFDD2D"/>
<path fill-rule="evenodd" clip-rule="evenodd" d="M14.3271 6.22813C14.537 6.02003 14.8204 5.90292 15.116 5.9021C15.4115 5.90129 15.6956 6.01684 15.9066 6.22377C16.1177 6.4307 16.2389 6.71239 16.2439 7.00793C16.2489 7.30347 16.1375 7.58912 15.9336 7.80313L9.94556 15.2881C9.84265 15.399 9.71844 15.4879 9.58036 15.5497C9.44228 15.6114 9.29317 15.6447 9.14194 15.6475C8.99071 15.6503 8.84047 15.6226 8.7002 15.566C8.55993 15.5094 8.43251 15.4251 8.32556 15.3181L4.35806 11.3491C4.24753 11.2461 4.15888 11.1219 4.09739 10.9839C4.0359 10.8459 4.00284 10.697 4.00018 10.5459C3.99751 10.3949 4.0253 10.2448 4.08188 10.1047C4.13846 9.96465 4.22268 9.8374 4.32951 9.73057C4.43633 9.62374 4.56358 9.53952 4.70367 9.48294C4.84375 9.42636 4.99379 9.39857 5.14485 9.40124C5.2959 9.4039 5.44487 9.43697 5.58287 9.49845C5.72087 9.55994 5.84507 9.6486 5.94806 9.75913L9.08906 12.8986L14.2986 6.26113C14.3079 6.24951 14.3179 6.23848 14.3286 6.22813H14.3271Z" fill="black"/>
</g>
<defs>
<clipPath id="clip0_122_411">
<rect width="20" height="20" fill="white" transform="translate(0 0.9021)"/>
</clipPath>
</defs>
</svg>
