<svg width="49" height="54" fill="none" xmlns="http://www.w3.org/2000/svg"><path fill-rule="evenodd" clip-rule="evenodd" d="M27.256.141c-.708.219-1.397.668-1.735 1.13-.17.233-2.5 4.452-5.177 9.377l-4.868 8.954-6.242.03c-5.816.028-6.274.044-6.696.227-.594.257-1.345 1.09-1.506 1.67-.094.341-.118 4.19-.095 15.54l.03 15.084.296.498c.162.274.453.617.646.763.825.623-.49.586 20.63.586 21.052 0 19.787.035 20.596-.576.195-.147.494-.517.664-.822l.31-.554.032-3.771.032-3.772h.749c.685 0 .775-.026 1.06-.308l.311-.308v-4.235c0-2.703-.04-4.308-.11-4.438-.178-.33-.682-.521-1.376-.521h-.644v-3.91c0-2.401-.044-4.08-.113-4.351-.179-.702-.744-1.38-1.425-1.71l-.594-.287.2-.33c.86-1.423 5.72-10.526 5.844-10.949.33-1.114-.045-2.478-.909-3.303C46.653 9.365 29.806.283 29.071.1a3.5 3.5 0 00-1.815.041zm2.27 2.44c.492.266.895.505.895.53 0 .06-11.254 20.785-11.464 21.114-.148.23-.203.237-1.907.237-.965 0-1.755-.03-1.755-.065s2.641-4.913 5.87-10.839c3.962-7.272 5.987-10.886 6.23-11.117.53-.504.994-.474 2.13.14zm3.853 2.097c.512.258.994.513 1.07.564.109.073-1.06 2.3-4.992 9.526-2.824 5.186-5.182 9.49-5.24 9.562-.076.094-.52.132-1.532.132-.784 0-1.425-.02-1.425-.043 0-.046 10.393-19.017 10.827-19.763.143-.247.283-.448.311-.448.028 0 .47.211.981.47zm7.708 4.177c2.482 1.337 4.61 2.525 4.727 2.64.157.153.21.34.204.707-.009.445-.349 1.118-3.212 6.353l-3.203 5.854-6.508.027c-3.58.015-6.509.009-6.509-.014 0-.125 9.836-17.999 9.905-17.999.045 0 2.113 1.094 4.596 2.432zm-2.197 2.67c-.754.349-1.163.813-1.765 2.002-.46.909-.525 1.119-.524 1.688.002 1.201.65 2.115 1.911 2.692 1.278.585 2.64.367 3.504-.56.63-.678 1.3-2.094 1.325-2.803.047-1.322-.583-2.295-1.887-2.914-.944-.448-1.753-.481-2.564-.106zm1.76 1.914c.65.334.698.947.148 1.92-.5.888-.752 1.005-1.41.66-.272-.143-.564-.385-.649-.537-.145-.26-.13-.327.249-1.055.599-1.152.942-1.356 1.662-.988zm-26.42 8.325c0 .024-.318.618-.706 1.318l-.705 1.274H2.938V23.25c0-1.692-.622-1.53 5.859-1.53 2.988 0 5.432.02 5.432.045zm27.483 4.913c.205.204.213.352.213 4.106v3.894l-2.424.038c-2.753.042-2.873.07-3.74.874-.87.805-1.003 1.242-1.058 3.484-.073 2.956.153 3.877 1.162 4.732.743.63 1.115.7 3.735.7h2.325v3.566c0 2.633-.034 3.599-.128 3.692-.099.098-4.53.127-19.3.127-17.689 0-19.185-.014-19.365-.175-.187-.167-.195-.693-.195-12.5 0-12.186.002-12.33.213-12.538.211-.21.355-.21 19.28-.21 18.927 0 19.07 0 19.282.21zm2.45 12.976V42.5h-3.17c-2.804 0-3.211-.021-3.54-.185-.204-.101-.431-.303-.504-.448-.173-.342-.188-3.937-.019-4.417.218-.617.343-.638 3.957-.642l3.276-.005v2.849z" fill="#5C636B"/></svg>