<svg width="55" height="54" fill="none" xmlns="http://www.w3.org/2000/svg"><path fill-rule="evenodd" clip-rule="evenodd" d="M1.794.214A2.104 2.104 0 00.65 1.392C.49 1.77.471 4.525.471 27c0 22.476.02 25.232.178 25.609.238.563.588.923 1.145 1.178.44.201 1.126.21 15.564.213 13.376.002 15.152-.018 15.53-.174.568-.235.933-.582 1.19-1.134.203-.436.212-1.145.215-16.492l.002-16.036h8.662c9.462 0 9.487-.001 10.474-.658.258-.172.64-.533.848-.803.725-.942.736-1.062.7-7.497-.033-5.776-.034-5.798-.298-6.377-.331-.724-1.054-1.435-1.806-1.777L52.3 2.79l-9.002-.031-9.003-.031-.002-.482C34.29 1.682 33.98.957 33.59.602c-.699-.636.162-.604-16.232-.601C2.92.003 2.234.013 1.794.214zm30.71 1.559c.1.098.18.349.18.556v.378l-1.581.048c-1.43.043-1.638.076-2.158.345a4.122 4.122 0 00-1.684 1.684l-.271.512-.033 8.762-.032 8.762.254.267c.14.15.385.266.55.265.193-.002 1.083-.556 2.562-1.595 1.246-.876 2.294-1.593 2.33-1.593.035 0 .063 6.025.063 13.387V46.94H2.082V24.445c0-20.297.017-22.51.18-22.672.163-.161 1.693-.18 15.121-.18s14.958.019 15.12.18zM14.067 2.997c-.325.342-.318.772.016 1.083.26.242.343.248 3.316.248 3.04 0 3.051-.001 3.3-.264.325-.342.319-.772-.016-1.083-.26-.242-.343-.248-3.316-.248-3.04 0-3.05 0-3.3.264zm38.095 1.485c.494.204 1.088.89 1.173 1.353.038.205.053 2.863.035 5.907l-.035 5.535-.322.419c-.672.872.113.81-11.067.873l-10.01.057-1.668 1.175-1.668 1.175-.033-7.384c-.018-4.061-.002-7.552.035-7.757.081-.45.67-1.143 1.147-1.348.52-.225 21.871-.23 22.413-.005zM40.59 6.615c-1.022.162-1.944.88-2.4 1.871-.262.57-.284 1.837-.042 2.41.095.226.173.422.173.436 0 .015-.23.17-.512.347-.558.35-1.102 1.028-1.311 1.638-.073.213-.133.89-.133 1.503 0 1.024.021 1.13.256 1.293.22.153.852.178 4.581.178h4.327l.263-.278c.247-.26.261-.352.215-1.396-.041-.922-.102-1.219-.352-1.697-.305-.587-.927-1.217-1.418-1.439-.257-.116-.26-.135-.091-.46.276-.529.326-1.44.117-2.15-.464-1.583-1.994-2.522-3.673-2.256zm1.473 1.816c.952.583.956 2.064.007 2.68-.724.47-1.813.246-2.256-.463-.275-.44-.297-1.186-.05-1.66.39-.747 1.535-1.024 2.299-.557zm-.866 4.476c.348 0 .943-.037 1.323-.081.584-.069.747-.046 1.058.148.48.3.731.693.808 1.262l.063.46h-6.472v-.428c0-.547.325-1.072.819-1.322.306-.154.536-.18 1.079-.118.38.043.975.079 1.323.079zM15.025 14.85c-1.417.349-2.599 1.297-3.21 2.573-.35.73-.358.788-.395 2.692-.037 1.92-.034 1.95.242 2.28.229.27.292.5.343 1.243.078 1.119.393 1.95 1.071 2.82l.51.655h-.357c-.576 0-1.717.334-2.461.719-.912.473-2.12 1.666-2.56 2.53-.704 1.38-.745 1.649-.805 5.156-.059 3.466-.022 3.763.502 4 .405.182 18.552.182 18.956 0 .524-.237.561-.534.502-4-.06-3.507-.101-3.776-.805-5.156-.44-.866-1.647-2.057-2.569-2.536-.766-.398-1.838-.713-2.43-.713h-.38l.511-.655c.918-1.178 1.024-1.585 1.076-4.13l.045-2.221.501-.477c1.553-1.476 1.391-3.713-.335-4.627-.456-.242-.609-.252-3.926-.273-2.435-.015-3.62.02-4.026.12zm7.5 1.83c.542.624.15 1.648-.807 2.107-.464.222-.69.237-3.491.237-1.934 0-3.134.046-3.386.13-.614.203-1.114.631-1.485 1.273l-.342.591-.002-1.171c0-1.255.12-1.707.64-2.38.32-.418 1.143-.936 1.699-1.07.2-.049 1.831-.08 3.624-.07l3.26.02.29.334zm-1.365 5.79c-.037 1.678-.066 1.9-.31 2.365a3.634 3.634 0 01-1.569 1.575c-.525.276-.688.302-1.898.302-1.165 0-1.385-.031-1.84-.267-1.113-.575-1.82-1.588-1.927-2.76-.057-.623-.042-.668.334-1.04a2.51 2.51 0 00.543-.885c.082-.273.296-.64.476-.818l.326-.323H21.2l-.04 1.852zm-3.777 5.84c.601 0 1.294-.043 1.54-.094l.448-.093-.074.365c-.178.883-1.028 1.588-1.914 1.588-.886 0-1.736-.705-1.914-1.588l-.074-.366.448.094c.246.052.939.094 1.54.094zm-3.449.598c.005.365.465 1.22.896 1.662.233.24.684.573 1 .739.492.258.717.302 1.553.302.837 0 1.061-.044 1.553-.302.966-.507 1.887-1.682 1.896-2.417.002-.194.074-.21.738-.156 2.04.162 3.807 1.898 4.106 4.032.061.435.097 1.789.08 3.008l-.032 2.218H9.042l-.031-2.218c-.017-1.22.017-2.564.076-2.987.314-2.24 2.218-4.044 4.298-4.073.446-.006.547.03.55.192zm8.814 2.201c-.37.288-.385.626-.058 1.247.152.29.27.788.316 1.33.064.766.108.893.381 1.094.27.199.353.21.652.088.489-.2.64-.648.548-1.625-.085-.908-.374-1.655-.806-2.083-.352-.349-.633-.363-1.033-.05zm9.936 19.181c0 1.447-.032 1.79-.18 1.937-.163.161-1.693.18-15.12.18-13.43 0-14.959-.019-15.121-.18-.149-.147-.181-.49-.181-1.937v-1.757h30.602v1.758zm-17.237-.354c-.324.342-.318.772.017 1.083.248.231.38.248 1.935.248 1.597 0 1.68-.011 1.92-.264.324-.342.318-.772-.016-1.083-.248-.231-.38-.248-1.936-.248-1.596 0-1.68.011-1.92.264z" fill="#5C636B"/></svg>