<svg width="54" height="54" fill="none" xmlns="http://www.w3.org/2000/svg"><path fill-rule="evenodd" clip-rule="evenodd" d="M26.689.175l-13.03 6.769C6.695 10.56.904 13.594.788 13.687c-.241.194-.295.764-.095 1.003.074.088.284.188.469.222l.335.063.004 1.496c.004 1.346.028 1.541.245 1.95.133.25.454.603.715.785l.474.331.003 1.8c.002 1.525.032 1.863.2 2.22.265.57.74.989 1.302 1.154l.466.136v18.85l-.327.066c-.505.102-.98.425-1.3.88-.287.41-.29.436-.325 2.404l-.035 1.989-.285.146c-.808.417-1.103 1.075-1.167 2.602-.058 1.398.054 1.9.465 2.086.385.174 50.194.174 50.58 0 .412-.186.523-.687.464-2.097-.06-1.441-.261-1.935-1.008-2.472l-.447-.321-.006-1.84c-.006-1.645-.03-1.886-.23-2.296-.264-.54-.72-.908-1.348-1.092l-.454-.133.027-9.386.028-9.386.465-.137c.563-.164 1.037-.584 1.303-1.152.168-.358.198-.696.2-2.222l.002-1.799.474-.331c.262-.182.583-.535.716-.785.217-.409.241-.604.245-1.957l.003-1.503h.285c.312 0 .727-.425.727-.742 0-.101-.084-.281-.186-.4C53.63 13.655 31.477 2.045 27.998.311c-.775-.386-.821-.39-1.31-.136zm11.456 7.04c5.973 3.11 10.906 5.697 10.962 5.75.062.059-8.534.097-21.88.097-12.09 0-21.949-.036-21.908-.08.106-.111 21.72-11.395 21.854-11.408.06-.006 4.998 2.533 10.972 5.642zm13.108 7.545c.17.185.209.422.239 1.433.042 1.402-.059 1.759-.541 1.925-.454.157-46.998.158-47.451.002-.464-.16-.564-.486-.564-1.832 0-1.048.027-1.228.221-1.472l.221-.277H51.05l.203.221zM12.95 20.182v.58H4.428v-1.16h8.521v.58zm8.524 1.187c.002 1.494.033 1.832.2 2.189.266.568.74.988 1.303 1.153l.465.136v18.85l-.326.066c-.505.102-.981.425-1.3.88-.286.408-.292.446-.326 2.297l-.035 1.882H14.44v-1.72c0-1.636-.014-1.747-.274-2.264-.29-.576-.768-.953-1.362-1.073l-.335-.068V24.842l.402-.114c.56-.16 1.129-.643 1.364-1.157.17-.37.2-.704.202-2.202l.002-1.767h7.032l.002 1.767zm10.01-1.187v.58h-8.52v-1.16h8.52v.58zm8.524 1.187c.003 1.494.033 1.832.2 2.189.266.568.74.988 1.303 1.153l.466.136v18.85l-.335.068c-.594.12-1.072.497-1.362 1.073-.26.517-.274.628-.274 2.264v1.72h-7.013l-.035-1.882c-.035-1.851-.04-1.889-.326-2.297-.319-.455-.795-.778-1.3-.88l-.327-.066v-18.85l.466-.136c.563-.165 1.037-.585 1.303-1.153.167-.357.197-.695.2-2.19l.002-1.766h7.03l.002 1.767zm10.011-1.187v.58h-8.523v-1.16h8.522v.58zM12.95 22.588c0 .192-.068.441-.15.554-.145.195-.33.206-3.969.232-4.354.03-4.329.034-4.382-.69l-.033-.445h8.534v.35zm18.535 0c0 .192-.068.441-.152.554-.143.195-.329.206-3.967.232-4.355.03-4.33.034-4.382-.69l-.033-.445h8.534v.35zm18.534.067c0 .75.037.744-4.26.744-4.299 0-4.262.007-4.262-.744v-.416h8.522v.416zM9.557 24.876h1.475v18.777H6.345v-9.37c0-5.155.036-9.409.08-9.454.044-.045.435-.053.868-.017.434.035 1.452.064 2.264.064zm19.983 9.362l.027 9.415H24.88v-9.37c0-5.155.033-9.404.073-9.444.04-.04 1.083-.06 2.317-.044l2.244.028.027 9.415zm18.535 0l.027 9.415h-4.688v-9.37c0-5.155.033-9.404.073-9.444.04-.04 1.083-.06 2.317-.044l2.243.028.028 9.415zM12.736 45.341c.132.13.213.351.213.58v.369H4.428v-.416c0-.751-.04-.744 4.284-.744 3.67 0 3.82.008 4.024.21zm18.51-.047c.177.122.238.27.238.58v.416h-8.521v-.416c0-.75-.038-.744 4.26-.744 3.255 0 3.82.023 4.024.164zm18.535 0c.177.122.237.27.237.58v.416h-8.522v-.416c0-.75-.037-.744 4.261-.744 3.256 0 3.82.023 4.024.164zm-36.832 3v.528H4.428v-1.055h8.521v.527zm18.535 0v.528h-8.521v-1.055h8.52v.527zm18.534 0v.528h-8.522v-1.055h8.522v.527zm.935 2.118c.408.14.556.523.556 1.432v.67H2.936v-.734c0-.86.14-1.225.522-1.364.408-.148 47.065-.153 47.495-.004z" fill="#5C636B"/></svg>