<svg width="55" height="54" viewBox="0 0 55 54" fill="none" xmlns="http://www.w3.org/2000/svg">
<path fill-rule="evenodd" clip-rule="evenodd" d="M1.79424 0.213867C1.23729 0.468391 0.886742 0.8291 0.649285 1.39215C0.490404 1.7687 0.471191 4.52517 0.471191 27.0004C0.471191 49.4757 0.490404 52.2322 0.649285 52.6087C0.886742 53.1718 1.23729 53.5325 1.79424 53.787C2.23418 53.9881 2.91997 53.9975 17.3581 53.9999C30.734 54.002 32.5105 53.9822 32.8878 53.826C33.4564 53.5908 33.8207 53.2437 34.0777 52.6921C34.281 52.256 34.2902 51.5474 34.2926 36.2005L34.2951 20.1645H42.957C52.419 20.1645 52.4438 20.1629 53.4315 19.5061C53.6894 19.3345 54.0706 18.9734 54.2785 18.7033C55.0041 17.7612 55.0154 17.6409 54.9789 11.2064C54.9462 5.42968 54.9452 5.40837 54.6806 4.82937C54.3495 4.1051 53.6272 3.39394 52.8753 3.05169L52.3 2.78987L43.2976 2.75865L34.2951 2.72755L34.2926 2.24596C34.2896 1.682 33.9798 0.957274 33.5896 0.602148C32.8914 -0.0335937 33.752 -0.00169284 17.3581 0.00104153C2.91997 0.00343411 2.23418 0.0127765 1.79424 0.213867ZM32.5037 1.77257C32.6031 1.87112 32.6844 2.12166 32.6844 2.32936V2.70704L31.1025 2.75478C29.6733 2.79785 29.4651 2.83112 28.9454 3.09965C28.2593 3.4541 27.6321 4.08095 27.2607 4.78368L26.9896 5.29638L26.9574 14.0582L26.9252 22.8199L27.1787 23.0873C27.3199 23.2361 27.5638 23.3534 27.7287 23.3519C27.9222 23.3501 28.8118 22.7962 30.2908 21.7568C31.537 20.881 32.5854 20.1645 32.6205 20.1645C32.6557 20.1645 32.6844 26.1887 32.6844 33.5515V46.9386H17.3832H2.08185V24.4451C2.08185 4.1484 2.09946 1.93413 2.26259 1.77257C2.42516 1.6117 3.95494 1.59358 17.3832 1.59358C30.8114 1.59358 32.3411 1.6117 32.5037 1.77257ZM14.0668 2.99654C13.7424 3.33868 13.7487 3.76923 14.0829 4.08027C14.3426 4.32169 14.4261 4.32796 17.3993 4.32796C20.4387 4.32796 20.4502 4.32704 20.6995 4.06432C21.0239 3.72218 21.0176 3.29163 20.6834 2.98059C20.4237 2.73917 20.3402 2.73291 17.367 2.73291C14.3276 2.73291 14.3161 2.73382 14.0668 2.99654ZM52.1617 4.48188C52.6555 4.68616 53.25 5.37169 53.3351 5.83516C53.3727 6.04013 53.3882 8.69839 53.3695 11.7425L53.3354 17.2773L53.0131 17.6956C52.3412 18.5678 53.1256 18.5059 41.9458 18.5695L31.9366 18.6264L30.2685 19.8011L28.6003 20.9757L28.5675 13.5918C28.5494 9.53055 28.5648 6.04013 28.6019 5.83516C28.6831 5.38479 29.272 4.69242 29.7486 4.48678C30.2683 4.26244 51.6202 4.25789 52.1617 4.48188ZM40.5908 6.61548C39.5689 6.77738 38.6475 7.49584 38.1914 8.48648C37.9295 9.0558 37.9071 10.3231 38.1492 10.8966C38.2441 11.1216 38.3218 11.3176 38.3218 11.3322C38.3218 11.3467 38.0913 11.5029 37.8096 11.6793C37.2517 12.0285 36.7083 12.7074 36.499 13.3171C36.4258 13.5301 36.366 14.2066 36.366 14.8203C36.366 15.8442 36.387 15.9507 36.6217 16.1134C36.842 16.2663 37.4742 16.2908 41.2035 16.2908H45.5296L45.7934 16.0127C46.0397 15.7531 46.054 15.6606 46.0077 14.6171C45.967 13.6949 45.9056 13.3981 45.6564 12.9196C45.351 12.3332 44.7294 11.7028 44.2378 11.481C43.9812 11.3651 43.9773 11.3456 44.1466 11.0212C44.423 10.492 44.4728 9.58148 44.2642 8.871C43.7996 7.28837 42.2705 6.34945 40.5908 6.61548ZM42.0638 8.43133C43.0157 9.01398 43.02 10.4951 42.0714 11.1106C41.3472 11.5804 40.2579 11.3571 39.8154 10.648C39.5403 10.2073 39.5179 9.46242 39.7655 8.98846C40.1558 8.24084 41.2995 7.96364 42.0638 8.43133ZM41.1979 12.9066C41.546 12.9066 42.1413 12.8701 42.521 12.8256C43.105 12.757 43.2679 12.7799 43.579 12.9742C44.0581 13.2735 44.3102 13.6669 44.3873 14.2357L44.4495 14.6958H41.2131H37.9766L37.9771 14.2685C37.9777 13.7209 38.3024 13.1965 38.7959 12.9465C39.1016 12.7916 39.3321 12.7663 39.8749 12.8281C40.2546 12.8713 40.8499 12.9066 41.1979 12.9066ZM15.0247 14.8508C13.6081 15.1999 12.4262 16.1476 11.8154 17.4243C11.4659 18.1548 11.4574 18.2124 11.4202 20.1164C11.3827 22.0368 11.386 22.0666 11.6623 22.3951C11.8906 22.6664 11.9541 22.8967 12.0053 23.6394C12.0826 24.7577 12.3983 25.5894 13.076 26.4593L13.5864 27.1144H13.2291C12.6532 27.1144 11.5116 27.4476 10.7679 27.8329C9.8556 28.3058 8.64807 29.4989 8.20778 30.3628C7.5045 31.7426 7.4625 32.012 7.40291 35.5194C7.344 38.9853 7.38128 39.282 7.90497 39.5182C8.30971 39.7008 26.4566 39.7008 26.8613 39.5182C27.385 39.282 27.4223 38.9853 27.3634 35.5194C27.3038 32.012 27.2618 31.7426 26.5585 30.3628C26.1171 29.4966 24.9108 28.3061 23.9891 27.8269C23.223 27.4288 22.1505 27.1144 21.5583 27.1144H21.1799L21.6903 26.4593C22.608 25.2812 22.7142 24.8739 22.7661 22.3292L22.8114 20.1076L23.3121 19.6314C24.8651 18.1546 24.7033 15.9185 22.9772 15.0041C22.5213 14.7625 22.3682 14.7519 19.0513 14.7309C16.6157 14.7155 15.4306 14.7507 15.0247 14.8508ZM22.5252 16.6817C23.0668 17.3055 22.6744 18.329 21.7178 18.7875C21.2543 19.0098 21.0281 19.0252 18.2268 19.0252C16.2934 19.0252 15.0929 19.0711 14.8405 19.1549C14.2265 19.3584 13.7273 19.7865 13.3558 20.428L13.0135 21.019L13.0124 19.8476C13.0112 18.5933 13.1327 18.141 13.6516 17.4673C13.9729 17.0501 14.795 16.5325 15.3505 16.3977C15.5509 16.349 17.182 16.3178 18.9752 16.3285L22.2354 16.3478L22.5252 16.6817ZM21.1596 22.4716C21.1233 24.1488 21.0941 24.3713 20.8496 24.8357C20.4817 25.5345 19.9672 26.0513 19.2814 26.4112C18.7555 26.6871 18.5926 26.7131 17.3832 26.7133C16.2179 26.7136 15.9983 26.6817 15.5424 26.4459C14.4303 25.8712 13.7236 24.8585 13.6163 23.686C13.5592 23.063 13.5736 23.0181 13.9499 22.6454C14.1662 22.4312 14.4106 22.0331 14.4929 21.7608C14.5754 21.4885 14.7894 21.1205 14.9687 20.943L15.2946 20.6202H18.247H21.1995L21.1596 22.4716ZM17.3832 28.3107C17.9843 28.3107 18.6774 28.2685 18.9235 28.2171L19.3711 28.1235L19.2972 28.4889C19.1189 29.3718 18.2692 30.0766 17.3832 30.0766C16.4971 30.0766 15.6474 29.3718 15.4691 28.4889L15.3952 28.1235L15.8428 28.2171C16.0889 28.2685 16.782 28.3107 17.3832 28.3107ZM13.9343 28.9088C13.9389 29.2738 14.3992 30.1281 14.8297 30.5706C15.0634 30.811 15.5136 31.1436 15.83 31.3096C16.322 31.5678 16.5468 31.6115 17.3832 31.6115C18.2195 31.6115 18.4443 31.5678 18.9363 31.3096C19.9017 30.803 20.8234 29.6282 20.832 28.8932C20.8343 28.6991 20.9057 28.6839 21.5696 28.7367C23.6095 28.8988 25.3774 30.6348 25.6761 32.7688C25.737 33.2038 25.7726 34.5577 25.7554 35.7773L25.7241 37.9949H17.3832H9.04222L9.01092 35.7773C8.99367 34.5577 9.02807 33.2132 9.08732 32.7897C9.40059 30.5506 11.305 28.7461 13.3853 28.7171C13.8311 28.7108 13.9322 28.7461 13.9343 28.9088ZM22.7484 31.1103C22.3788 31.3981 22.363 31.7362 22.6896 32.3567C22.8425 32.6473 22.9609 33.145 23.006 33.6871C23.0696 34.4531 23.1138 34.5798 23.387 34.7813C23.6562 34.9799 23.7403 34.9912 24.0388 34.8688C24.528 34.6681 24.6789 34.2212 24.5872 33.2442C24.5019 32.3357 24.2129 31.589 23.7809 31.1611C23.4287 30.8124 23.1485 30.7985 22.7484 31.1103ZM32.6844 50.2915C32.6844 51.7375 32.6523 52.081 32.5037 52.2283C32.3411 52.3892 30.8114 52.4073 17.3832 52.4073C3.95494 52.4073 2.42516 52.3892 2.26259 52.2283C2.11395 52.081 2.08185 51.7375 2.08185 50.2915V48.5336H17.3832H32.6844V50.2915ZM15.4474 49.9366C15.1229 50.2787 15.1293 50.7093 15.4635 51.0203C15.7116 51.2511 15.8435 51.268 17.3993 51.268C18.9957 51.268 19.0798 51.2565 19.3189 51.0044C19.6434 50.6622 19.637 50.2317 19.3028 49.9206C19.0547 49.6898 18.9228 49.6729 17.367 49.6729C15.7706 49.6729 15.6865 49.6844 15.4474 49.9366Z" fill="#5C636B"/>
</svg>
