<svg width="54" height="54" viewBox="0 0 54 54" fill="none" xmlns="http://www.w3.org/2000/svg">
<path fill-rule="evenodd" clip-rule="evenodd" d="M26.6887 0.174879C26.4845 0.281421 20.6209 3.32725 13.6584 6.94354C6.69584 10.5597 0.905026 13.5941 0.789772 13.6865C0.547867 13.8805 0.493542 14.4508 0.694118 14.6903C0.76751 14.7777 0.978418 14.8775 1.16291 14.912L1.49845 14.9746L1.50217 16.4707C1.50558 17.8165 1.53019 18.0125 1.74695 18.4209C1.87978 18.671 2.20105 19.0236 2.46223 19.206L2.93646 19.537L2.9388 21.3364C2.94082 22.8622 2.97107 23.1998 3.13842 23.5576C3.40429 24.1264 3.87841 24.546 4.44125 24.7106L4.90706 24.8468V34.2718V43.6969L4.58016 43.7632C4.07547 43.8654 3.59933 44.1878 3.28019 44.6434C2.9927 45.0539 2.9894 45.0787 2.95478 47.047L2.91984 49.0357L2.63522 49.1824C1.82663 49.5991 1.53179 50.2565 1.46819 51.7844C1.41003 53.1822 1.52188 53.6842 1.93262 53.8695C2.31822 54.0435 52.1275 54.0435 52.5131 53.8695C52.9248 53.6837 53.0357 53.1827 52.977 51.7725C52.9171 50.3317 52.7155 49.8376 51.9685 49.3007L51.5223 48.9799L51.5158 47.1409C51.5099 45.4954 51.4857 45.2535 51.2854 44.8437C51.0218 44.3046 50.5667 43.9359 49.9376 43.7518L49.4842 43.6191L49.5115 34.2329L49.5387 24.8468L50.0045 24.7105C50.5672 24.546 51.0414 24.1264 51.3073 23.5576C51.4746 23.1998 51.5049 22.8622 51.5069 21.3364L51.5093 19.537L51.9835 19.206C52.2447 19.0236 52.5659 18.671 52.6988 18.4209C52.9156 18.0122 52.9401 17.8167 52.9435 16.4639L52.9473 14.961L53.2324 14.9607C53.5436 14.9604 53.9592 14.5365 53.9592 14.2195C53.9592 14.1177 53.8753 13.9375 53.7728 13.8191C53.6306 13.6548 31.4768 2.04484 27.9982 0.311485C27.2231 -0.0747022 27.1766 -0.0795546 26.6887 0.174879ZM38.1445 7.2158C44.1183 10.3245 49.0515 12.9116 49.1073 12.9648C49.1687 13.0236 40.573 13.0617 27.2264 13.0617C15.1363 13.0617 5.27807 13.026 5.31929 12.9826C5.42528 12.8705 27.0395 1.58724 27.173 1.57427C27.2334 1.56836 32.1706 4.10711 38.1445 7.2158ZM51.2531 14.7602C51.4224 14.9452 51.462 15.1821 51.492 16.1927C51.5337 17.5948 51.4334 17.9516 50.9507 18.1182C50.4971 18.2748 3.95318 18.2764 3.49962 18.1198C3.03648 17.9599 2.93646 17.6345 2.93646 16.2883C2.93646 15.2402 2.96341 15.0604 3.15727 14.8164L3.37798 14.5385H27.2141H51.0502L51.2531 14.7602ZM12.9493 20.182V20.7622H8.6885H4.42773V20.182V19.6018H8.6885H12.9493V20.182ZM21.4732 21.3688C21.4752 22.8631 21.506 23.2007 21.6728 23.5576C21.9386 24.1264 22.4128 24.546 22.9756 24.7106L23.4414 24.8468V34.2718V43.6969L23.1145 43.7632C22.6098 43.8654 22.1337 44.1878 21.8146 44.6434C21.5288 45.0515 21.5235 45.0888 21.4888 46.9399L21.4536 48.8217H17.9471H14.4405V47.1018C14.4405 45.4663 14.4271 45.3554 14.1667 44.8379C13.8769 44.2619 13.3985 43.885 12.8046 43.7648L12.4699 43.6969V34.2697V24.8424L12.8717 24.7275C13.4316 24.5672 14.0006 24.0848 14.2365 23.5706C14.4055 23.2018 14.4362 22.867 14.4382 21.3688L14.4405 19.6018H17.9557H21.4708L21.4732 21.3688ZM31.4836 20.182V20.7622H27.2229H22.9621V20.182V19.6018H27.2229H31.4836V20.182ZM40.0075 21.3688C40.0095 22.8631 40.0403 23.2007 40.2071 23.5576C40.473 24.1264 40.9471 24.546 41.51 24.7106L41.9758 24.8468V34.2718V43.6969L41.6411 43.7648C41.0473 43.885 40.5688 44.2619 40.279 44.8379C40.0186 45.3554 40.0052 45.4663 40.0052 47.1018V48.8217H36.4987H32.9922L32.9569 46.9399C32.9222 45.0888 32.917 45.0515 32.6312 44.6434C32.312 44.1878 31.8359 43.8654 31.3312 43.7632L31.0043 43.6969V34.2718V24.8468L31.4701 24.7106C32.0329 24.546 32.5071 24.1264 32.7729 23.5576C32.9398 23.2007 32.9705 22.8631 32.9726 21.3688L32.9749 19.6018H36.49H40.0052L40.0075 21.3688ZM50.018 20.182V20.7622H45.7572H41.4964V20.182V19.6018H45.7572H50.018V20.182ZM12.9493 22.5881C12.9493 22.7801 12.8813 23.0292 12.7981 23.1419C12.6541 23.337 12.4687 23.3479 8.83028 23.3735C4.47598 23.4042 4.50133 23.4081 4.44828 22.6849L4.41548 22.239H8.68243H12.9493V22.5881ZM31.4836 22.5881C31.4836 22.7801 31.4157 23.0292 31.3325 23.1419C31.1885 23.337 31.003 23.3479 27.3646 23.3735C23.0103 23.4042 23.0357 23.4081 22.9826 22.6849L22.9498 22.239H27.2168H31.4836V22.5881ZM50.018 22.655C50.018 23.4059 50.0554 23.3994 45.7572 23.3994C41.4591 23.3994 41.4964 23.4059 41.4964 22.655V22.239H45.7572H50.018V22.655ZM9.55674 24.8762H11.0319V34.2645V43.6528H8.6885H6.34507V34.2821C6.34507 29.1281 6.38097 24.8744 6.42496 24.8292C6.46896 24.7841 6.85956 24.7762 7.2932 24.8117C7.72674 24.8472 8.74538 24.8762 9.55674 24.8762ZM29.5402 34.2381L29.5675 43.6528H27.2234H24.8794V34.2821C24.8794 29.1281 24.9123 24.8788 24.9525 24.839C24.9927 24.7992 26.0353 24.7795 27.2693 24.7951L29.513 24.8234L29.5402 34.2381ZM48.0745 34.2381L48.1018 43.6528H45.7578H43.4138V34.2821C43.4138 29.1281 43.4467 24.8788 43.4869 24.839C43.527 24.7992 44.5696 24.7795 45.8037 24.7951L48.0474 24.8234L48.0745 34.2381ZM12.7362 45.3406C12.8681 45.4712 12.9493 45.6922 12.9493 45.9208V46.29H8.6885H4.42773V45.8741C4.42773 45.1227 4.38778 45.1296 8.71225 45.1296C12.3812 45.1296 12.5312 45.1376 12.7362 45.3406ZM31.2468 45.2939C31.4234 45.4164 31.4836 45.5637 31.4836 45.8741V46.29H27.2229H22.9621V45.8741C22.9621 45.1231 22.9247 45.1296 27.2229 45.1296C30.4783 45.1296 31.0434 45.1528 31.2468 45.2939ZM49.7812 45.2939C49.9578 45.4164 50.018 45.5637 50.018 45.8741V46.29H45.7572H41.4964V45.8741C41.4964 45.1231 41.4591 45.1296 45.7572 45.1296C49.0127 45.1296 49.5777 45.1528 49.7812 45.2939ZM12.9493 48.2943V48.8217H8.6885H4.42773V48.2943V47.7668H8.6885H12.9493V48.2943ZM31.4836 48.2943V48.8217H27.2229H22.9621V48.2943V47.7668H27.2229H31.4836V48.2943ZM50.018 48.2943V48.8217H45.7572H41.4964V48.2943V47.7668H45.7572H50.018V48.2943ZM50.953 50.4117C51.3607 50.5524 51.5093 50.9349 51.5093 51.8438V52.5137H27.2229H2.93646V51.7803C2.93646 50.9193 3.07568 50.5549 3.45776 50.416C3.86605 50.2677 50.5234 50.2634 50.953 50.4117Z" fill="#5C636B"/>
</svg>
