<svg width="49" height="54" viewBox="0 0 49 54" fill="none" xmlns="http://www.w3.org/2000/svg">
<path fill-rule="evenodd" clip-rule="evenodd" d="M27.2559 0.141094C26.5484 0.359989 25.8587 0.80896 25.5214 1.27027C25.3507 1.50351 23.0207 5.72348 20.3437 10.6479L15.4762 19.6015L9.23365 19.6319C3.41841 19.66 2.96025 19.6756 2.53767 19.8586C1.94423 20.1156 1.19281 20.9493 1.03217 21.529C0.937576 21.8705 0.913927 25.7187 0.93683 37.0682L0.967296 52.1535L1.26258 52.651C1.42503 52.9246 1.71595 53.2679 1.90907 53.4137C2.7341 54.0369 1.41874 53.9996 22.5384 53.9996C43.5913 53.9996 42.3264 54.0349 43.1353 53.4239C43.3299 53.2768 43.6288 52.9071 43.7994 52.6022L44.1095 52.048L44.1411 48.2767L44.1727 44.5054H44.9216C45.6072 44.5054 45.6968 44.4793 45.9818 44.197L46.2932 43.8887V39.6539C46.2932 36.9512 46.2535 35.3458 46.1835 35.2163C46.005 34.8858 45.5005 34.6947 44.8072 34.6947H44.1627V30.7855C44.1627 28.384 44.1193 26.7057 44.0499 26.434C43.8711 25.7321 43.3061 25.0544 42.6246 24.7243L42.0308 24.4366L42.2304 24.1064C43.0905 22.684 47.9501 13.5813 48.0754 13.1581C48.4053 12.0436 48.0298 10.6797 47.1662 9.85547C46.6529 9.36557 29.8067 0.283297 29.0712 0.0999527C28.4839 -0.0465747 27.8129 -0.0312784 27.2559 0.141094ZM29.5259 2.58111C30.0183 2.84695 30.4212 3.08567 30.4212 3.11173C30.4212 3.17038 19.1671 23.8965 18.9571 24.2247C18.8095 24.4552 18.7541 24.462 17.05 24.462C16.0846 24.462 15.2948 24.4329 15.2948 24.3972C15.2948 24.3617 17.9363 19.484 21.165 13.558C25.1271 6.28575 27.1521 2.67215 27.395 2.4407C27.9242 1.93656 28.3886 1.96715 29.5259 2.58111ZM33.3793 4.67785C33.8907 4.93641 34.3725 5.19054 34.4499 5.24244C34.5577 5.31491 33.3898 7.54279 29.4567 14.7677C26.6332 19.9545 24.275 24.2577 24.2166 24.3301C24.1409 24.4238 23.6974 24.462 22.6852 24.462C21.9014 24.462 21.2601 24.4427 21.2601 24.4191C21.2601 24.3729 31.6527 5.40216 32.0868 4.65602C32.2302 4.40948 32.3704 4.20768 32.3984 4.20768C32.4265 4.20768 32.8678 4.41929 33.3793 4.67785ZM41.0866 8.85478C43.5694 10.1922 45.6967 11.3802 45.8139 11.4949C45.9708 11.6484 46.0244 11.8348 46.0176 12.2016C46.0094 12.647 45.6692 13.3199 42.8059 18.5545L39.6034 24.4093L33.0948 24.4365C29.5152 24.4514 26.5863 24.4447 26.5863 24.4217C26.5863 24.2969 36.422 6.423 36.4906 6.423C36.5356 6.423 38.6039 7.51726 41.0866 8.85478ZM38.8898 11.5243C38.1358 11.8736 37.7268 12.3377 37.1249 13.5269C36.6648 14.4358 36.5996 14.6457 36.6006 15.2147C36.6025 16.4163 37.251 17.3297 38.5121 17.9069C39.7904 18.4918 41.1529 18.2739 42.0161 17.3465C42.6467 16.669 43.3161 15.2535 43.3413 14.544C43.3885 13.2219 42.7585 12.2494 41.454 11.6303C40.5095 11.182 39.701 11.1486 38.8898 11.5243ZM40.6496 13.4392C41.3008 13.7727 41.3483 14.3859 40.7985 15.3595C40.2973 16.247 40.0461 16.3642 39.3874 16.0181C39.1162 15.8755 38.8244 15.6342 38.739 15.4816C38.5935 15.2219 38.6092 15.1549 38.9877 14.4267C39.5865 13.2749 39.9299 13.0707 40.6496 13.4392ZM14.2295 21.7638C14.2295 21.7882 13.9122 22.3816 13.5243 23.0824L12.8191 24.3565H7.87856H2.93799V23.2489C2.93799 21.5568 2.31567 21.7192 8.7968 21.7192C11.7848 21.7192 14.2295 21.7393 14.2295 21.7638ZM41.7127 26.6773C41.9181 26.8807 41.9257 27.0289 41.9257 30.7828V34.6774L39.5023 34.7147C36.7486 34.7572 36.6286 34.7852 35.7611 35.5888C34.8922 36.3937 34.7594 36.8312 34.7042 39.0726C34.6313 42.0288 34.8574 42.9505 35.8656 43.8051C36.6094 44.4356 36.9813 44.5054 39.6012 44.5054H41.9257V48.071C41.9257 50.7036 41.8923 51.6697 41.7979 51.7632C41.6995 51.8606 37.2678 51.8897 22.4989 51.8897C4.80929 51.8897 3.31253 51.8762 3.13282 51.7152C2.94619 51.548 2.93799 51.0219 2.93799 39.2144C2.93799 27.0289 2.94044 26.8859 3.15104 26.6773C3.36249 26.4679 3.50608 26.4663 22.4319 26.4663C41.3576 26.4663 41.5012 26.4679 41.7127 26.6773ZM44.1627 39.6528V42.501L40.9936 42.5008C38.1894 42.5007 37.7818 42.4795 37.4532 42.3162C37.249 42.2148 37.022 42.0131 36.9488 41.8681C36.7764 41.5264 36.7615 37.9308 36.9304 37.4507C37.1476 36.8338 37.2735 36.8134 40.8871 36.8087L44.1627 36.8045V39.6528Z" fill="#5C636B"/>
</svg>
